<?xml version="1.0" encoding="UTF-8"?>
<svg width="28px" height="20px" viewBox="0 0 28 20" version="1.1" xmlns="http://www.w3.org/2000/svg" xmlns:xlink="http://www.w3.org/1999/xlink">
    <title>Actions / Operations / branch / 32</title>
    <g id="Applications" stroke="none" stroke-width="1" fill="none" fill-rule="evenodd">
        <g id="ACM-2.1-Create-App-1" transform="translate(-154.000000, -721.000000)" fill="#000000">
            <g id="Fill" transform="translate(152.000000, 715.000000)">
                <path d="M26,18 C24.1809831,18.0050598 22.5950415,19.2382959 22.142,21 L18,21 C16.3438312,20.9983463 15.0016537,19.6561688 15,18 L15,14 C14.9961009,12.9145681 14.635608,11.8604955 13.974,11 L22.142,11 C22.645567,12.9503067 24.5207867,14.2219252 26.5190005,13.9681188 C28.5172143,13.7143124 30.0149833,12.0142681 30.0149833,10 C30.0149833,7.98573188 28.5172143,6.28568764 26.5190005,6.03188121 C24.5207867,5.77807479 22.645567,7.04969328 22.142,9 L9.858,9 C9.35443297,7.04969328 7.47921328,5.77807479 5.48099948,6.03188121 C3.48278569,6.28568764 1.98501665,7.98573188 1.98501665,10 C1.98501665,12.0142681 3.48278569,13.7143124 5.48099948,13.9681188 C7.47921328,14.2219252 9.35443297,12.9503067 9.858,11 L10,11 C11.6561688,11.0016537 12.9983463,12.3438312 13,14 L13,18 C13.0033061,20.7600532 15.2399468,22.9966939 18,23 L22.142,23 C22.6647762,25.0085847 24.6388649,26.282038 26.6843243,25.9301815 C28.7297838,25.578325 30.1648791,23.7184296 29.9864396,21.6506127 C29.8080001,19.5827959 28.0754983,17.996244 26,18 Z M26,8 C27.1045695,8 28,8.8954305 28,10 C28,11.1045695 27.1045695,12 26,12 C24.8954305,12 24,11.1045695 24,10 C24.0011025,8.89588748 24.8958875,8.00110246 26,8 Z M6,12 C4.8954305,12 4,11.1045695 4,10 C4,8.8954305 4.8954305,8 6,8 C7.1045695,8 8,8.8954305 8,10 C7.99889754,11.1041125 7.10411252,11.9988975 6,12 L6,12 Z M26,24 C24.8954305,24 24,23.1045695 24,22 C24,20.8954305 24.8954305,20 26,20 C27.1045695,20 28,20.8954305 28,22 C27.9983479,23.1038844 27.1038844,23.9983479 26,24 Z"></path>
            </g>
        </g>
    </g>
</svg>